<?xml version="1.0" encoding="UTF-8"?>
<svg id="Camada_2" data-name="Camada 2" xmlns="http://www.w3.org/2000/svg" viewBox="0 0 51.79 43.85">
  <g id="Camada_1-2" data-name="Camada 1">
    <path d="M45.99,42.96c-3.44-4.11-18.4-8.05-24.06-7.91,1.79-1.79,3.37-3.71,4.33-5.08l.26-.36.63-.2c5.66-2.06,12.29-7.52,16.2-13.24,2.95-4.32,4.83-10.2.22-9.76-4.16.56-7.7,6.41-9.7,9.57-3.17,5.06-4.93,8.04-6.34,10.27-.39.61-.75,1.19-1.12,1.73l-.54.76c-.91.25-2.9.65-3.77.55-3.25-.39-7.16-3.46-5.1-6.73.52-.83-.38-.58-1,.39-2.41,3.81,1.94,6.8,5.23,7.36.48.08,1,.1,1.51.08.67-.03,1.36-.13,2.06-.3l.12-.04c-1.68,2.31-2.83,3.58-4.14,5.07-1.09.05-1.93.05-2.7.08-.9.04-1.66.11-2.48.28-1.23.23-2.79,1.8-3.08,2.51-.6,1.49.42,2.15,1.7,2.09,1.83-.08,4.2-1.72,6.43-3.77,5.23-.13,21.86,4.31,24.89,7.35.29.29.76.29,1.02-.03h.01M28.33,26.95c.51-.76,1-1.48,1.45-2.19,1.98-3.13,3.51-5.99,5.32-8.86l.77-1.22c1.75-2.77,4.43-6.76,7.02-7.15,3.9-.66,2.23,4.06,0,7.59-.25.4-.53.79-.79,1.15-3.72,5.09-9.52,9.88-14.52,11.88l-.09.04.84-1.22ZM14.99,38.88c-1.38.41-2.04-.12-1.62-1.08.19-.39.49-.93,1.49-1.08.62-.1,1.71-.25,3.12-.31.42-.02.83-.04,1.29-.02-1.4,1.07-2.98,2.05-4.29,2.49Z"/>
    <path d="M27.69,6.49c.61-.77,1.22-1.5,1.79-2.14.2-.22,1.71-.13,2.07-.16.93-.06,1.87-.07,2.8-.11,1.87-.08,3.74-.17,5.61-.28,3.68-.23,7.36-.55,11-1.1.43-.07,1.01-.41.78-.78-.14-.22-.46-.21-.72-.17-6.83,1.05-13.76,1.29-20.67,1.52.8-.84,1.59-1.67,2.39-2.51.08-.08.16-.17.19-.29.06-.26-.24-.5-.51-.47s-.49.21-.69.39c-.7.64-1.34,1.34-1.93,2.09-1.03,1.33-2.65,1.01-4.18.92-5.04-.28-10.54-.61-15.47.64-2.73.69-5.37,1.99-7.3,4.04C.47,10.59-1.16,14.87,1.04,17.99c.19.27.42.54.73.68.37.18,1.01.24.84-.37-.06-.2-.2-.37-.33-.54-1.27-1.65-1.49-3.97-.82-5.94.68-1.97,2.17-3.6,3.92-4.71,1.76-1.12,3.78-1.76,5.82-2.19,2.82-.59,5.71-.79,8.6-.78,1.47,0,2.95.06,4.42.14.71.04,1.42.08,2.13.13.29.02,1.56.3,1.78.03-3.71,4.55-7.42,9.09-11.14,13.64-.11.14-.23.28-.38.37-.18.1-.38.13-.59.15-2.82.32-5.64.64-8.46.96-.29.03-.6.07-.82.27-.35.31-.18.99.36.81h.07c2.07.59,3.41,2.84,2.81,5.78-.03.3-.18.65-.23,1.02-.25.25-.39.52-.61.77-.44.59-.92,1.19-1.31,1.71-.57.77-1.06,1.46-1.46,2.05-.61.87-1.28,1.67-1.33,2.04-.03.03-.02.07-.08.1-.04.27.2.53.45.55.21-.01.47-.09.49-.26v-.03c.9-.68,1.75-1.6,2.53-2.64.88-1.18,1.63-2.5,2.13-3.79l6.53-8.41c1.88-.16,3.76-.29,5.86-.4,1.21-.06,2.45-.09,3.83-.16.28-.01.57-.23.54-.5.03-.3-.14-.53-.41-.52l-2.62.13c-2.31.12-4.37.26-6.39.39.44-.46.74-.91,1.09-1.33,3.07-3.81,6.28-7.62,8.69-10.63ZM11.2,25.49c.15-1.85-.47-3.86-2.18-5.11,2.39-.32,4.63-.57,6.75-.75l-4.57,5.86Z"/>
  </g>
</svg>