<?xml version="1.0" encoding="UTF-8"?>
<svg id="Camada_2" data-name="Camada 2" xmlns="http://www.w3.org/2000/svg" viewBox="0 0 488.7 171.62">
  <defs>
    <style>
      .cls-1 {
        fill: #05171d;
      }

      .cls-2 {
        fill: #fff;
      }

      .cls-3 {
        fill: #336751;
      }
    </style>
  </defs>
  <g id="Camada_1-2" data-name="Camada 1">
    <g>
      <polygon class="cls-3" points="487.95 171.62 488.7 0 320.9 0 487.95 171.62"/>
      <g>
        <path class="cls-1" d="M457.1,157.52h-34.06l-28.73-58.65c-4.85-10.04-9.36-20.51-13.71-30.77.74,10.75,1.1,21.82,1.1,33.43v28.95h12.77v27.05h-56.86v-27.05h13.38V47.43h-13.38v-27.05h49.44l24.07,48.05c1.77,3.48,7.26,15.77,16.3,36.04-.58-9-1.04-19.59-1.04-31.56v-25.48h-12.77v-27.05h56.86v27.05h-13.38v110.1ZM427.41,150.52h22.69V40.43h13.38v-13.05h-42.86v13.05h12.77v32.48c0,21.27,1.42,37.54,2.46,49.41l.16,1.87-6.68,1.73-6.69-15.01c-9.95-22.32-15.95-35.79-17.75-39.33l-22.15-44.21h-38.11v13.05h13.38v97.05h-13.38v13.05h42.86v-13.05h-12.77v-35.95c0-19.6-1.05-37.65-3.22-55.17l6.68-1.83c2.28,5.23,4.58,10.67,6.8,15.93,4.96,11.74,10.09,23.87,15.64,35.35l26.8,54.71Z"/>
        <g>
          <path class="cls-1" d="M94.54,157.52H0v-27.05h12.81V47.43H0v-27.05h56.31v27.05h-12.61v82.32h22.62v-18.05h28.22v45.83ZM7,150.52h80.54v-31.83h-14.22v18.05h-36.62V40.43h12.61v-13.05H7v13.05h12.81v97.05H7v13.05Z"/>
          <path class="cls-1" d="M197.75,157.52h-94.16v-27.05h12.61V47.43h-12.61v-27.05h94.16v44.19h-28.41v-17.13h-22.43v24.72h33.45v27.78h-33.45v30.55h22.43v-18.78h28.41v45.83ZM110.59,150.52h80.16v-31.83h-14.41v18.78h-36.43v-44.55h33.45v-13.78h-33.45v-38.72h36.43v17.13h14.41v-30.19h-80.16v13.05h12.61v97.05h-12.61v13.05Z"/>
          <path class="cls-1" d="M333.26,157.52h-55.74v-25.59h10.74l-3.39-12.14h-31.82l-3.64,12.14h10.46v25.59h-54.78v-27.05h13.18l26.79-83.05h-10.93v-27.05h52.15l33.83,110.1h13.15v27.05ZM284.52,150.52h41.74v-13.05h-11.32l-33.83-110.1h-39.98v13.05h13.54l-31.31,97.05h-11.28v13.05h40.78v-11.59h-12.86l7.83-26.14h42.34l7.31,26.14h-12.96v11.59ZM288.47,102.29h-38.63l19.57-69.86,19.06,69.86ZM259.07,95.29h20.24l-9.99-36.59-10.25,36.59Z"/>
        </g>
      </g>
      <path class="cls-2" d="M3.5,153.9v-20.05h12.81V43.8H3.5v-20.05h49.31v20.05h-12.61v89.32h29.62v-18.05h21.22v38.83H3.5Z"/>
      <path class="cls-2" d="M107.09,153.9v-20.05h12.61V43.8h-12.61v-20.05h87.16v37.19h-21.41v-17.13h-29.43v31.72h33.45v20.78h-33.45v37.55h29.43v-18.78h21.41v38.83h-87.16Z"/>
      <path class="cls-2" d="M281.02,153.9v-18.59h11.85l-5.35-19.14h-37.08l-5.73,19.14h11.66v18.59h-47.78v-20.05h12.23l29.05-90.05h-12.23v-20.05h46.06l33.83,110.1h12.23v20.05h-48.74ZM269.36,45.44l-14.91,53.23h29.43l-14.53-53.23Z"/>
      <path class="cls-2" d="M453.6,43.8v110.1h-28.37l-27.77-56.69c-8.11-16.77-15.2-34.63-22.5-51.4,2.43,19.69,3.24,38.1,3.24,55.6v32.45h12.77v20.05h-49.86v-20.05h13.38V43.8h-13.38v-20.05h43.78l23.1,46.12c2.23,4.38,10.54,23.15,24.52,54.5-1.01-11.67-2.64-28.98-2.64-51.59v-28.98h-12.77v-20.05h49.86v20.05h-13.38Z"/>
    </g>
  </g>
</svg>