<?xml version="1.0" encoding="UTF-8"?>
<svg id="Camada_2" data-name="Camada 2" xmlns="http://www.w3.org/2000/svg" viewBox="0 0 488.7 171.62">
  <defs>
    <style>
      .cls-1 {
        fill: #05171d;
      }

      .cls-2 {
        fill: none;
        stroke: #fff;
        stroke-width: 7px;
      }

      .cls-3 {
        fill: #336751;
      }
    </style>
  </defs>
  <g id="Camada_1-2" data-name="Camada 1">
    <g>
      <polygon class="cls-3" points="487.95 171.62 488.7 0 320.9 0 487.95 171.62"/>
      <g>
        <path d="M3.5,154.02v-20.05h12.81V43.93H3.5v-20.05h49.31v20.05h-12.61v89.32h29.62v-18.05h21.22v38.83H3.5Z"/>
        <path d="M107.09,154.02v-20.05h12.61V43.93h-12.61v-20.05h87.16v37.19h-21.41v-17.13h-29.43v31.72h33.45v20.78h-33.45v37.55h29.43v-18.78h21.41v38.83h-87.16Z"/>
        <path d="M281.02,154.02v-18.59h11.85l-5.35-19.14h-37.08l-5.73,19.14h11.66v18.59h-47.78v-20.05h12.23l29.05-90.05h-12.23v-20.05h46.06l33.83,110.1h12.23v20.05h-48.74ZM269.36,45.57l-14.91,53.23h29.43l-14.53-53.23Z"/>
      </g>
      <g>
        <path class="cls-2" d="M3.5,154.02v-20.05h12.81V43.93H3.5v-20.05h49.31v20.05h-12.61v89.32h29.62v-18.05h21.22v38.83H3.5Z"/>
        <path class="cls-2" d="M107.09,154.02v-20.05h12.61V43.93h-12.61v-20.05h87.16v37.19h-21.41v-17.13h-29.43v31.72h33.45v20.78h-33.45v37.55h29.43v-18.78h21.41v38.83h-87.16Z"/>
        <path class="cls-2" d="M281.02,154.02v-18.59h11.85l-5.35-19.14h-37.08l-5.73,19.14h11.66v18.59h-47.78v-20.05h12.23l29.05-90.05h-12.23v-20.05h46.06l33.83,110.1h12.23v20.05h-48.74ZM269.36,45.57l-14.91,53.23h29.43l-14.53-53.23Z"/>
      </g>
      <path class="cls-1" d="M3.5,154.02v-20.05h12.81V43.93H3.5v-20.05h49.31v20.05h-12.61v89.32h29.62v-18.05h21.22v38.83H3.5Z"/>
      <path class="cls-1" d="M107.09,154.02v-20.05h12.61V43.93h-12.61v-20.05h87.16v37.19h-21.41v-17.13h-29.43v31.72h33.45v20.78h-33.45v37.55h29.43v-18.78h21.41v38.83h-87.16Z"/>
      <path class="cls-1" d="M281.02,154.02v-18.59h11.85l-5.35-19.14h-37.08l-5.73,19.14h11.66v18.59h-47.78v-20.05h12.23l29.05-90.05h-12.23v-20.05h46.06l33.83,110.1h12.23v20.05h-48.74ZM269.36,45.57l-14.91,53.23h29.43l-14.53-53.23Z"/>
      <g>
        <path d="M453.6,43.93v110.1h-28.37l-27.77-56.69c-8.11-16.77-15.2-34.63-22.5-51.4,2.43,19.69,3.24,38.1,3.24,55.6v32.45h12.77v20.05h-49.86v-20.05h13.38V43.93h-13.38v-20.05h43.78l23.1,46.12c2.23,4.38,10.54,23.15,24.52,54.5-1.01-11.67-2.64-28.98-2.64-51.59v-28.98h-12.77v-20.05h49.86v20.05h-13.38Z"/>
        <path class="cls-2" d="M453.6,43.93v110.1h-28.37l-27.77-56.69c-8.11-16.77-15.2-34.63-22.5-51.4,2.43,19.69,3.24,38.1,3.24,55.6v32.45h12.77v20.05h-49.86v-20.05h13.38V43.93h-13.38v-20.05h43.78l23.1,46.12c2.23,4.38,10.54,23.15,24.52,54.5-1.01-11.67-2.64-28.98-2.64-51.59v-28.98h-12.77v-20.05h49.86v20.05h-13.38Z"/>
        <path class="cls-1" d="M453.6,43.93v110.1h-28.37l-27.77-56.69c-8.11-16.77-15.2-34.63-22.5-51.4,2.43,19.69,3.24,38.1,3.24,55.6v32.45h12.77v20.05h-49.86v-20.05h13.38V43.93h-13.38v-20.05h43.78l23.1,46.12c2.23,4.38,10.54,23.15,24.52,54.5-1.01-11.67-2.64-28.98-2.64-51.59v-28.98h-12.77v-20.05h49.86v20.05h-13.38Z"/>
      </g>
    </g>
  </g>
</svg>