<?xml version="1.0" encoding="UTF-8"?>
<svg id="Camada_2" data-name="Camada 2" xmlns="http://www.w3.org/2000/svg" viewBox="0 0 383.13 100.7">
  <g id="Camada_1-2" data-name="Camada 1">
    <g>
      <path d="M23.48,87.35c1.65,0,3.1.52,4.28,1.71l.97-.97c-1.28-1.4-3.18-2.11-5.29-2.11-4.36,0-7.58,3.12-7.58,7.36s3.22,7.36,7.56,7.36c2.13,0,4.03-.72,5.31-2.13l-.97-.97c-1.18,1.22-2.62,1.74-4.28,1.74-3.49,0-6.12-2.56-6.12-5.99s2.62-5.99,6.12-5.99Z"/>
      <rect x="40.88" y="86.11" width="1.53" height="14.46"/>
      <path d="M67.33,91.07c0-3.1-2.23-4.96-5.91-4.96h-5.41v14.46h1.53v-4.59h3.88c.41,0,.78-.02,1.16-.06l3.31,4.65h1.67l-3.53-4.96c2.11-.68,3.31-2.27,3.31-4.55ZM61.38,94.69h-3.84v-7.25h3.84c2.89,0,4.42,1.32,4.42,3.64s-1.53,3.62-4.42,3.62Z"/>
      <path d="M90.11,94.33c0,3.43-1.61,5-4.44,5s-4.42-1.57-4.42-5v-8.22h-1.53v8.29c0,4.15,2.25,6.3,5.95,6.3s5.93-2.15,5.93-6.3v-8.29h-1.49v8.22Z"/>
      <path d="M116.42,91.07c0-3.1-2.23-4.96-5.91-4.96h-5.41v14.46h1.53v-4.59h3.88c.41,0,.79-.02,1.16-.06l3.31,4.65h1.67l-3.53-4.96c2.11-.68,3.31-2.27,3.31-4.55ZM110.47,94.69h-3.84v-7.25h3.84c2.89,0,4.42,1.32,4.42,3.64s-1.53,3.62-4.42,3.62Z"/>
      <path d="M135.35,87.35c1.69,0,3.14.5,4.36,1.69l.95-.97c-1.28-1.38-3.18-2.09-5.37-2.09-4.42,0-7.64,3.12-7.64,7.36s3.22,7.36,7.62,7.36c2,0,3.95-.62,5.31-1.84v-5.52h-1.47v4.88c-1.12.81-2.4,1.12-3.78,1.12-3.55,0-6.18-2.56-6.18-5.99s2.62-5.99,6.2-5.99Z"/>
      <rect x="153.79" y="86.11" width="1.53" height="14.46"/>
      <path d="M173.21,86.11l-6.61,14.46h1.59l1.74-3.86h8.06l1.74,3.86h1.61l-6.61-14.46h-1.51ZM170.49,95.47l3.47-7.77,3.47,7.77h-6.94Z"/>
      <path d="M212.33,86.11h-5.41v14.46h1.53v-4.57h3.88c3.68,0,5.91-1.86,5.91-4.94s-2.23-4.96-5.91-4.96ZM212.29,94.67h-3.84v-7.23h3.84c2.89,0,4.42,1.32,4.42,3.64s-1.53,3.59-4.42,3.59Z"/>
      <polygon points="231.97 86.11 230.44 86.11 230.44 100.57 240.07 100.57 240.07 99.25 231.97 99.25 231.97 86.11"/>
      <path d="M255.84,86.11l-6.61,14.46h1.59l1.74-3.86h8.06l1.74,3.86h1.61l-6.61-14.46h-1.51ZM253.11,95.47l3.47-7.77,3.47,7.77h-6.94Z"/>
      <polygon points="260.05 82.37 258.09 82.37 255.26 84.93 256.71 84.93 260.05 82.37"/>
      <path d="M275.72,89.91c0-1.45,1.18-2.62,3.82-2.62,1.28,0,2.73.39,3.97,1.2l.52-1.22c-1.16-.8-2.85-1.28-4.48-1.28-3.68,0-5.33,1.84-5.33,3.97,0,5.35,8.9,2.91,8.9,6.88,0,1.43-1.18,2.56-3.88,2.56-1.9,0-3.74-.74-4.77-1.76l-.6,1.18c1.07,1.12,3.2,1.88,5.37,1.88,3.7,0,5.39-1.82,5.39-3.95,0-5.27-8.91-2.87-8.91-6.84Z"/>
      <polygon points="294.36 87.43 299.44 87.43 299.44 100.57 300.97 100.57 300.97 87.43 306.06 87.43 306.06 86.11 294.36 86.11 294.36 87.43"/>
      <rect x="317.38" y="86.11" width="1.53" height="14.46"/>
      <path d="M338.85,87.35c1.65,0,3.1.52,4.28,1.71l.97-.97c-1.28-1.4-3.18-2.11-5.29-2.11-4.36,0-7.58,3.12-7.58,7.36s3.22,7.36,7.56,7.36c2.13,0,4.03-.72,5.31-2.13l-.97-.97c-1.18,1.22-2.62,1.74-4.28,1.74-3.49,0-6.12-2.56-6.12-5.99s2.62-5.99,6.12-5.99Z"/>
      <path d="M360.18,86.11l-6.61,14.46h1.59l1.74-3.86h8.06l1.74,3.86h1.61l-6.61-14.46h-1.51ZM357.46,95.47l3.47-7.77,3.47,7.77h-6.94Z"/>
      <path d="M54.78,12.84c1.2-1.52,2.41-2.97,3.54-4.22.39-.43,3.38-.26,4.09-.31,1.85-.12,3.7-.15,5.55-.23,3.7-.16,7.4-.33,11.09-.56,7.28-.45,14.56-1.09,21.77-2.18.86-.13,2-.81,1.54-1.55-.27-.44-.91-.41-1.42-.33-13.52,2.09-27.23,2.55-40.9,3,1.58-1.65,3.15-3.31,4.73-4.96.16-.17.32-.34.37-.56.12-.52-.47-.98-1.01-.94s-.97.41-1.37.78c-1.38,1.27-2.66,2.66-3.81,4.14-2.04,2.63-5.24,2-8.28,1.83-9.96-.56-20.85-1.2-30.61,1.26-5.41,1.36-10.62,3.93-14.45,7.98-4.71,4.98-7.93,13.44-3.58,19.6.38.54.84,1.07,1.44,1.35.73.35,2.01.48,1.66-.74-.12-.4-.4-.74-.66-1.07-2.52-3.26-2.96-7.86-1.62-11.76,1.34-3.9,4.28-7.12,7.76-9.33,3.48-2.21,7.48-3.49,11.51-4.34,5.59-1.17,11.31-1.55,17.01-1.54,2.91,0,5.83.11,8.74.27,1.4.08,2.81.16,4.21.26.58.04,3.08.6,3.52.05-7.35,9-14.69,17.99-22.04,26.99-.22.27-.45.55-.75.73-.35.2-.76.25-1.16.3-5.58.63-11.16,1.26-16.74,1.9-.58.07-1.19.15-1.63.53-.7.61-.36,1.97.71,1.59h.14c4.1,1.18,6.76,5.61,5.56,11.44-.05.6-.36,1.28-.45,2.01-.5.49-.77,1.03-1.2,1.52-.87,1.17-1.81,2.35-2.59,3.38-1.13,1.52-2.09,2.89-2.9,4.06-1.22,1.72-2.54,3.31-2.62,4.05-.05.07-.03.13-.15.21-.07.53.4,1.04.9,1.08.41-.02.92-.18.97-.52l-.02-.06c1.79-1.35,3.47-3.16,5.01-5.23,1.75-2.34,3.22-4.94,4.22-7.51l12.93-16.63c3.72-.32,7.45-.58,11.6-.79,2.38-.12,4.86-.18,7.58-.32.54-.03,1.13-.46,1.06-.98.05-.6-.27-1.05-.81-1.02l-5.18.26c-4.57.23-8.64.51-12.64.78.87-.91,1.47-1.8,2.16-2.63,6.08-7.53,12.43-15.08,17.19-21.03ZM22.16,50.43c.3-3.66-.92-7.64-4.32-10.12,4.74-.64,9.17-1.13,13.36-1.48l-9.04,11.6Z"/>
      <path d="M124.28,32.45c.34.33,1.16.33,1.58.07.48-.33,2.23-1.79,2.64-2.12.53-.4.92-.86,1.14-1.12.41-.33.3-.86-.42-1.06-.46-.27-1.32-.13-1.65.26l-.96.99c-.41.33-1.98,1.65-2.29,1.85-.56.26-.64.86-.05,1.12Z"/>
      <path d="M219.03,41.59c-2,.32-3.62,1.35-5.39,2.33s-3.53,2.03-5.48,2.59c-.03.01-.07.02-.1.03-1.92.54-4.06.56-5.8-.41-.58-.33-1-.73-.84-1.43.17-.72.65-1.32,1.11-1.87.93-1.13,2.32-2.38,3.87-3.44l.3-.2c1-.79-.11-2.25-1.13-1.52-.05.07-.25.13-2.37,1.46l-.74-.27c-1.47-.53-3.1-.79-4.67-.79-2.73,0-5.46.66-7.58,1.65-1.36.63-2.43,1.33-3.28,2.06-4.38,1.92-10.77,4.76-13.89,4.76-.89,0-1.47-.2-1.72-.73.15-1.26,2.99-3.77,3.92-4.9.82-.99.58-2.18-.61-2.32-3.49-.4-10.38,1.99-14.07,3.64l2-2.25c.4-.4.28-.99,0-1.32-.46-.27-1.2-.2-1.58.26l-2.27,2.43c-4.82,2.5-12.25,5.25-14.92,4.65-.95-.33-.2-1.66.8-2.78,1.18-1.26,2.78-2.45,3.94-3.44,1.14-.79.02-2.25-.99-1.52l-2.42,1.52h-.07c-1.1-.73-2.68-1.12-4.59-1.12-2.39,0-5.2.6-8.03,1.79-1.24.53-2.33,1.14-3.26,1.78-5.02,2.32-12.24,5.24-15.38,5.24-.75,0-1.27-.2-1.49-.6-.31-.86,7.25-8.34,8.23-8.87.34-.33.37-.86-.16-1.12-.65-.2-1.39-.13-1.73.2-1.38.92-3.05,2.47-4.54,4.13-4.31,1.95-10.77,4.28-14.07,4.74l1.35-1.06c.93-.79,1.9-1.72,2.73-2.71,1.26-1.52,2.1-3.11,1.71-4.37l-.12-.26c-.11-.53-.65-.86-1.21-.93-2.56-.53-11.48,4.96-14.89,7.68,2.46-3.38,5.9-7.61,9.46-11.92,7.18-8.67,14.69-17.41,17.43-19.73.53-.4.67-1.06.46-1.46-.35-.4-1.04-.4-1.51-.07-2.86,2.38-9.67,10.19-16.2,18.07l-1.75,2.12c-3.04,3.67-5.93,7.28-8.37,10.36-4.81,2.41-11.75,4.91-14.31,4.33-.95-.33-.2-1.66.8-2.78,1.18-1.26,2.78-2.45,3.94-3.44,1.14-.79.02-2.25-.99-1.52l-2.42,1.52h-.07c-1.1-.73-2.68-1.12-4.59-1.12-2.39,0-5.2.6-8.03,1.79-2.64,1.12-4.59,2.58-5.8,4.04-1.15,1.39-1.51,2.65-.97,3.64.37.46,1.02.66,1.91.66,3.62,0,10.92-3.38,14.2-5.03-1.09,2.38-.42,3.64,1.39,4.17,2.32.66,8.78-1.46,11.86-3.11.43-.23.84-.46,1.22-.67l-2.32,3.32c-.67,1.06-1.25,1.92-1.36,2.38-.05.07-.16.2-.12.4-.05.07-.03.53.17.86.41.33.91.13.98.13.19-.07.37-.2.44-.2.23-.2.64-.53.96-.99l1.94-1.85.75-.66.08.07c.68.99,4.47,1.19,5.73.99l.33-.07h.55c5.54-.06,11.81-2.17,16.87-5.07-1.34,1.78-2.26,3.47-2.14,4.34.14,1.39,1.66,1.79,3.42,1.72,3.04-.12,8.29-2.21,12.59-4.32-.72,1.11-.9,2.11-.45,2.93.37.46,1.02.66,1.91.66,3.62,0,10.92-3.38,14.2-5.03-1.09,2.38-.42,3.64,1.39,4.17,2.32.66,8.78-1.46,11.86-3.11.35-.19.67-.37.99-.55l-1.19,1.27c-.79.79-1.27,1.46-1.64,1.99-.81,1.06,1.09,1.66,1.73.79l1.33-1.52c3.6-2.78,11.42-5.96,16.91-6.49-.79.79-1.47,1.52-2.07,2.25-.99,1.19-1.71,2.32-1.85,3.31-.2,1.72,1.33,2.52,3.31,2.52,3.59,0,8.62-1.98,12.31-3.83-.06.17-.12.34-.16.52-.25,1.46.78,2.52,2.49,2.52,3.41,0,8.78-2.78,12.6-4.5l-.06.07c-1,1.21-.7,2.85.14,4.06.87,1.23,2.55,1.59,3.96,1.76,1.66.19,3.37.17,5-.2,1.67-.38,3.23-1.2,4.66-2.13,1.92-1.24,3.66-2.72,5.55-4.01.39-.26.21-1.09-.01-1.06ZM59.13,46.68c-.97-.07-.78-.79.09-1.59,3.27-3.04,8.82-4.3,12.23-4.3,1.02,0,1.87.13,2.39.33-4.42,2.45-11.1,5.16-14.7,5.56ZM92.08,46.61c-.68,0-1.26-.13-1.72-.4l-.08-.07c6.51-4.24,10.48-6.88,13.4-7.61h.14v.26c.07.4-.28,1.06-1.04,1.99-2.58,3.11-7.55,5.83-10.69,5.83ZM128.12,46.68c-.97-.07-.78-.79.09-1.59,3.27-3.04,8.82-4.3,12.23-4.3,1.02,0,1.87.13,2.39.33-4.42,2.45-11.1,5.16-14.7,5.56ZM200.58,40.59c-3.61,2.05-10.31,5.03-13.11,5.03-1.23,0-1.21-.6-.61-1.32.77-.93,2.56-2.19,4.01-2.78,2.45-1.06,4.75-1.46,6.67-1.46.96,0,1.86.07,2.58.26l.71.13-.24.13Z"/>
      <path d="M382.41,42.25c-2.91,1.42-9.74,7.02-18.37,7.05-3.24.01-5.31-1.38-2.82-4.88,3.57.25,8.73-2.52,10.4-4.94.55-.81.47-1.48-.11-1.94-.47-.27-1.02-.33-1.69-.33-2.83.01-6.85,2.17-9.85,5.54-.33.37-.62.73-.88,1.08-3.17.46-11.84,3.44-14.06,4.35l-.12.07.21-.27c2.94-3.9,5.05-7.06,5.08-7.19.66-.94-.4-2.01-1.32-1.33-.41.27-1.09.81-2.03,1.42l-.19.07-.02-.07c-1.77-.93-3.68-1.32-5.43-1.32-2.22,0-4.02.69-5.85,1.57-1.06.6-2.01,1.42-2.72,2.25-4.57,2.25-10.46,4.37-12.8,3.84-.96-.33-.25-1.67.7-2.82,1.12-1.28,2.66-2.49,3.78-3.5,1.1-.81-.06-2.28-1.03-1.54l-2.34,1.55h-.07c-1.11-.73-2.69-1.13-4.58-1.12-2.36.01-5.12.62-7.87,1.84-2.57,1.15-4.45,2.63-5.59,4.11-1.09,1.41-1.4,2.69-.83,3.69.38.47,1.03.67,1.91.66,3.57-.02,10.67-3.46,13.85-5.15-.99,2.42-.29,3.69,1.52,4.22,2.31.66,8.62-1.51,11.61-3.2.17-.1.33-.19.49-.29-.04.18-.08.37-.1.55-.05.67.11,1.34.45,1.94.03.13.13.27.3.4.42.33.98.47,1.59.46.88,0,1.83-.28,2.59-.48,1.56-.54,3.38-1.42,5.25-2.37,1.45-.74,2.88-1.55,4.06-2.29l.31-.14-.26.34-4.12,5.51-.14.27-2.62,1.22c-10.7,5.07-20.97,11.41-25.98,16.59-1.67,1.83-2.52,3.65-2.68,5.25-6.8-8.13-36.41-15.92-47.61-15.64,3.53-3.54,6.68-7.34,8.57-10.05l.51-.71,1.24-.4c11.21-4.08,24.33-14.87,32.04-26.2,5.84-8.55,9.56-20.19.44-19.31-8.22,1.11-15.23,12.68-19.19,18.94-6.28,10.02-9.76,15.91-12.54,20.32-.77,1.21-1.48,2.35-2.22,3.41l-1.07,1.5c-1.79.49-5.74,1.28-7.47,1.08-6.42-.76-14.17-6.85-10.08-13.32,1.03-1.63-.76-1.14-1.97.78-4.77,7.53,3.84,13.45,10.35,14.56.94.17,1.97.19,2.99.15,1.33-.06,2.69-.25,4.07-.59l.24-.08c-3.32,4.57-5.59,7.09-8.2,10.03-2.15.09-3.82.09-5.34.16-1.78.08-3.28.21-4.91.56-2.44.45-5.52,3.55-6.1,4.96-1.19,2.95.82,4.25,3.36,4.14,3.61-.15,8.31-3.4,12.73-7.46,11.14-.27,48.38,9.92,50.13,15.85l.03.34c.32-.07.44-.15.63-.36.79.95,2.18,1.25,3.63,1,6.8-1.24,15.76-10.05,22.84-18.52l5.03-6.25.69-.81,2.99-1.35c3.63-1.49,8.93-3.55,12.42-4.58-2.56,4.47,1.44,6.04,6.3,5.91,10.86-.31,17.98-6.95,18.36-7.43.49-.6.03-1.57-.52-1.3ZM369.72,39.43c-1.36,1.41-5.94,3.78-7.01,3.25,1.57-1.68,4.44-3.57,7.01-3.25ZM304.35,47.95c-.96-.06-.79-.8.03-1.61,3.13-3.1,8.57-4.39,11.94-4.41,1.01,0,1.85.13,2.37.33-4.28,2.5-10.79,5.27-14.34,5.69ZM343.28,42.96l-2.57,1.42c-1.81.95-3.64,1.76-4.95,2.23-.75.27-1.32.41-1.79.41-.4,0-.49-.07-.49-.07l-.21-.33c.01-.54.26-1.21.78-1.88.52-.67,1.19-1.28,2.19-1.89,1.31-.74,3.08-1.29,4.9-1.29,1.01,0,2,.19,3.02.52l.37.13-1.25.74ZM275.08,41.25c1.01-1.5,1.97-2.92,2.87-4.34,3.91-6.18,6.94-11.85,10.54-17.53l1.53-2.42c3.46-5.47,8.77-13.38,13.88-14.15,7.72-1.3,4.41,8.04,0,15.01-.5.78-1.05,1.57-1.57,2.28-7.35,10.07-18.84,19.55-28.73,23.5l-.17.08,1.66-2.42ZM248.68,64.86c-2.73.81-4.04-.24-3.21-2.15.37-.78.98-1.84,2.95-2.13,1.23-.19,3.39-.49,6.18-.61.82-.04,1.65-.07,2.55-.04-2.76,2.12-5.9,4.06-8.48,4.93ZM314.05,74.98c-.96.2-1.83-.33-2.11-1.26-.08-.94.2-2.61,2.22-4.7,4.22-4.51,12.95-10.24,22.31-14.97l2.35-1.22c-6.56,8.67-17.96,20.92-24.76,22.15Z"/>
    </g>
  </g>
</svg>